<svg id="Layer_1" data-name="Layer 1" xmlns="http://www.w3.org/2000/svg" viewBox="0 0 200 200"><defs><style>.cls-1{fill:#193446;}.cls-2{fill:#fff;}</style></defs><title>001_CODE MY PARTY_ICONES_RODAPÉ</title><circle class="cls-1" cx="100" cy="100" r="99"/><path class="cls-2" d="M30,61.45c.21-.74.38-1.49.62-2.22A12.3,12.3,0,0,1,42.34,50.8c8.57,0,17.13,0,25.7,0h89c6.23,0,11.05,3.49,12.53,9.15a14.81,14.81,0,0,1,.44,3.64q0,36.42,0,72.84c0,7.52-5.3,12.8-12.84,12.8h-114c-6.85,0-11.3-3.5-13-10.16a2.75,2.75,0,0,0-.2-.5Zm14.34-2.4c.42.46.7.79,1,1.09l50.86,51c2.48,2.49,5.11,2.48,7.61,0q25.49-25.54,51-51.11c.27-.27.5-.57.85-1Zm-.1,81.84H155.76L120.56,106c-.26.25-.62.58-1,.93-3.41,3.42-6.81,6.86-10.23,10.26a12.93,12.93,0,0,1-18.71,0c-2.07-2-4.12-4.13-6.18-6.2l-5-5Zm-6-75.69v69.59L73.39,100Zm123.41,69.65V65.39L126.61,100.1Z"/></svg>