<svg id="Layer_1" data-name="Layer 1" xmlns="http://www.w3.org/2000/svg" viewBox="0 0 200 200"><defs><style>.cls-1{fill:#193446;}.cls-2{fill:#fff;}</style></defs><title>001_CODE MY PARTY_ICONES_RODAPÉ</title><circle class="cls-1" cx="100" cy="100" r="99"/><path class="cls-2" d="M96,170l-.18,0a4.9,4.9,0,0,0-.94-.18,68.79,68.79,0,0,1-17.46-3.55,69.76,69.76,0,0,1-47-73.12A67.77,67.77,0,0,1,45.65,55.92,68.87,68.87,0,0,1,88.2,31.05c1.74-.31,3.54-.53,5.28-.75L95.9,30h8.15l.25.06a6.5,6.5,0,0,0,1,.18,67,67,0,0,1,31.92,10.51C154.64,52,165.32,68,169,88.22c.31,1.73.53,3.53.74,5.26.1.81.2,1.62.31,2.43v8.14l-.06.25a6.64,6.64,0,0,0-.18,1,61,61,0,0,1-3.89,18.32c-9.74,24.92-27.9,40.17-54,45.32-1.75.34-3.57.55-5.33.76l-2.47.31Zm7.55-7,1.45-.57c11.63-4.56,16.72-14.15,21.73-25.29l.44-1-1-.44a61.39,61.39,0,0,0-21.5-5.46l-1.14-.08Zm-8.2-32.75a62.34,62.34,0,0,0-21.39,5.46l-.93.43.39.94c2.79,6.8,6.55,14.55,13.34,20.5a21.52,21.52,0,0,0,8.38,4.71l1.36.39V130.17Zm27.78,28.51,2.91-1.3a61.77,61.77,0,0,0,15.69-10.19l1-.86-9-6.85ZM57.31,146.44l1,.86A61.53,61.53,0,0,0,74,157.45l2.88,1.27-10.5-19.13Zm84.62-43c-1.35,0-2.07.73-2.15,2.18v.15c-.12,2.16-.24,4.4-.45,6.58a106.63,106.63,0,0,1-3.47,18.72,2.12,2.12,0,0,0,1,2.63c1.58,1,2.83,1.82,3.95,2.66,1.36,1,2.68,2.05,4.07,3.15l2.57,2,.67-.8a62.93,62.93,0,0,0,14.71-36l.07-.92-.9-.21-.25-.06a2.26,2.26,0,0,0-.56-.09h-5.56q-6.85,0-13.72,0ZM37.09,104.6a62.87,62.87,0,0,0,14.64,36l.63.75,3-2.12c2.77-2,5.39-3.83,8-5.76a2.56,2.56,0,0,0,.71-2.51,110.74,110.74,0,0,1-3.84-25.17,2.13,2.13,0,0,0-2.38-2.36c-2,0-3.83,0-5.71,0H37Zm30,.06a107.12,107.12,0,0,0,3.48,23.61l.32,1.18L72,129a71,71,0,0,1,23.48-5.66l1-.07V103.55H67Zm36.44,18.58,1,.07A70.87,70.87,0,0,1,128,129l1.13.49.32-1.2a105.2,105.2,0,0,0,3.46-23.59l0-1.1H103.49Zm32.42-56a1.25,1.25,0,0,0-.19,1.08,111.6,111.6,0,0,1,4.06,26.1,2,2,0,0,0,2.35,2.13c3.63,0,7.23,0,10.83,0h7.65a6.77,6.77,0,0,0,.85-.06l.45,0,1.06-.09-.08-1.06a62.93,62.93,0,0,0-14.68-35.95l-.64-.77-10.66,7.89-.22-.25ZM51.72,59.41A62.42,62.42,0,0,0,37.12,95.2l-.06.78.72.29.19.09a1.45,1.45,0,0,0,.65.17h6c4.52,0,9,0,13.55,0a1.94,1.94,0,0,0,2-2.12l.11-1.64c.11-1.78.22-3.63.39-5.42a112.28,112.28,0,0,1,3.39-18.47,2.57,2.57,0,0,0-.83-2.46c-2.56-1.88-5.11-3.7-7.82-5.62l-3.07-2.19ZM128,71a70.91,70.91,0,0,1-23.47,5.67l-1,.08v19.7H133L133,95.37a105.3,105.3,0,0,0-3.51-23.64l-.33-1.18Zm-57.46.69a106.77,106.77,0,0,0-3.48,23.59l0,1.11H96.49V76.77l-1-.07A71.09,71.09,0,0,1,72,71l-1.13-.5Zm33-2.16,1,0,.62,0c5.59,0,17.79-3.27,21.06-5.64l.7-.51-.36-.79-.7-1.6c-.51-1.18-1-2.4-1.62-3.59-3.56-7.21-7.19-12.08-11.77-15.78a20.09,20.09,0,0,0-7.6-4l-1.34-.35ZM95,37.55C83.36,42.16,78.31,51.68,73.36,62.73l-.4.88.85.48c5,2.81,15.77,5.46,20.55,5.46a10.06,10.06,0,0,0,1.16-.06l.93-.11V37Zm29.3,6.36c.51.83,1,1.63,1.51,2.42,1.11,1.77,2.15,3.44,3.1,5.17s1.8,3.5,2.69,5.38c.4.84.8,1.69,1.22,2.55l.57,1.16,9.29-7-1-.87a62.72,62.72,0,0,0-16-10.31L122.52,41ZM74,42.52A60.69,60.69,0,0,0,58.31,52.73l-1,.86,9,6.82L76.92,41.18Z"/></svg>