<svg id="Layer_1" data-name="Layer 1" xmlns="http://www.w3.org/2000/svg" viewBox="0 0 200 200"><defs><style>.cls-1{fill:#193446;}.cls-2{fill:#fff;}</style></defs><title>001_CODE MY PARTY_ICONES_RODAPÉ</title><circle class="cls-1" cx="100" cy="100" r="99"/><path class="cls-2" d="M117.84,159H82.31c-.73-.06-1.45-.16-2.17-.18a66.81,66.81,0,0,1-14-1.42c-9.79-2.36-17.05-7.91-21.37-17.06-2.68-5.67-3.48-11.77-3.55-18C41.13,109.7,41,97,41.07,84.24c0-6.1.07-12.24,1.55-18.23C45.2,55.58,51.28,48.1,61.33,44c5.39-2.18,11.08-2.8,16.83-2.86,12-.13,24-.23,36-.19,6.3,0,12.63,0,18.83,1.34,11.45,2.49,19.48,9,23.51,20.2,1.93,5.35,2.39,10.94,2.41,16.57,0,13.61.08,27.23,0,40.84a80.26,80.26,0,0,1-.93,11.59A30.68,30.68,0,0,1,147,151.09c-6,5-13.15,7-20.79,7.48C123.44,158.76,120.64,158.89,117.84,159ZM100.07,148.6v-.18c3.11,0,6.23.09,9.34,0,6.72-.24,13.49-.16,20.13-1C138.64,146.24,144.77,141,147,132a51.19,51.19,0,0,0,1.26-11.19q.31-16.44.2-32.88a155.68,155.68,0,0,0-.9-17.14c-1.12-9.49-7.11-15.95-16.44-17.8a69.38,69.38,0,0,0-12.48-1.13Q102,51.57,85.4,51.76a116.18,116.18,0,0,0-15.39,1c-9,1.31-15.15,7.17-17,16.07A65.51,65.51,0,0,0,51.9,80.61c-.2,9.53-.28,19.07-.17,28.6.07,6.61.24,13.24.88,19.8a19.57,19.57,0,0,0,10,15.76,25.62,25.62,0,0,0,12,3.17C83.08,148.24,91.58,148.39,100.07,148.6Z"/><path class="cls-2" d="M69.71,100a30.35,30.35,0,1,1,30.37,30.36A30.35,30.35,0,0,1,69.71,100Zm30.35,19.67A19.66,19.66,0,1,0,80.4,100,19.59,19.59,0,0,0,100.06,119.64Z"/><path class="cls-2" d="M131.77,61.38a7.07,7.07,0,0,1-.32,14.13,7.07,7.07,0,1,1,.32-14.13Z"/></svg>