<?xml version="1.0" encoding="UTF-8"?><svg xmlns="http://www.w3.org/2000/svg" xmlns:xlink="http://www.w3.org/1999/xlink" version="1.2" width="100%" viewBox="0 0 512 512" xml:space="preserve" baseProfile="tiny-ps"><title>Code My Party</title><path fill="#FFFFFF" stroke="none" d=" M356.000000,513.000000   C237.362167,513.000000 119.224319,513.000000 1.043242,513.000000   C1.043242,342.403809 1.043242,171.807602 1.043242,1.105696   C171.554504,1.105696 342.109100,1.105696 512.831848,1.105696   C512.831848,171.666534 512.831848,342.333252 512.831848,513.000000   C460.807526,513.000000 408.653778,513.000000 356.000000,513.000000  M226.356003,121.511940   C191.478500,121.511940 156.600983,121.511940 121.460083,121.511940   C121.460083,137.392395 121.427536,152.530014 121.468163,167.667435   C121.521317,187.471375 121.632301,207.275162 121.444656,227.961288   C121.427223,267.082367 121.280594,306.203979 121.439301,345.324371   C121.539482,370.019287 139.264954,390.066925 163.823288,391.954132   C180.703476,393.251343 197.743835,392.469971 214.712692,392.603455   C218.673035,392.634613 222.633850,392.608063 227.156723,392.608063   C227.156723,390.145813 227.155518,388.199860 227.156921,386.253906   C227.195084,333.316315 227.233490,280.378723 228.148346,227.255737   C282.835480,227.255737 337.522583,227.255737 392.187561,227.255737   C392.187561,205.603317 393.240021,184.755890 391.916809,164.060349   C390.320587,139.094055 370.040558,121.659752 345.013550,121.575806   C333.025055,121.535599 321.036255,121.549797 309.047638,121.572685   C281.747620,121.624817 254.447662,121.697548 226.356003,121.511940  M377.210907,379.706879   C387.665253,369.748535 392.618286,357.426544 392.690033,343.112701   C392.776794,325.799683 392.519257,308.482483 392.830383,291.174652   C392.920593,286.153992 391.204834,285.163116 386.567963,285.190674   C354.938751,285.379028 323.307251,285.391113 291.678314,285.182068   C286.809998,285.149902 285.114594,286.143494 285.158417,291.426849   C285.422089,323.221436 285.401428,355.020142 285.173309,386.815308   C285.137451,391.811310 286.762634,392.883087 291.421600,392.813019   C308.564667,392.555084 325.714203,392.764099 342.860870,392.692993   C355.629089,392.640015 367.068237,388.858948 377.210907,379.706879  z"></path><path fill="#11C0FB" stroke="none" d=" M227.271881,227.441116   C227.233490,280.378723 227.195084,333.316315 227.156921,386.253906   C227.155518,388.199860 227.156723,390.145813 227.156723,392.608063   C222.633850,392.608063 218.673035,392.634613 214.712692,392.603455   C197.743835,392.469971 180.703476,393.251343 163.823288,391.954132   C139.264954,390.066925 121.539482,370.019287 121.439301,345.324371   C121.280594,306.203979 121.427223,267.082367 121.996918,227.545227   C157.345093,227.082520 192.141006,227.035858 227.010452,227.109741   C227.083984,227.230286 227.271881,227.441116 227.271881,227.441116  z"></path><path fill="#7B1EAF" stroke="none" d=" M227.147675,121.761909   C254.447662,121.697548 281.747620,121.624817 309.047638,121.572685   C321.036255,121.549797 333.025055,121.535599 345.013550,121.575806   C370.040558,121.659752 390.320587,139.094055 391.916809,164.060349   C393.240021,184.755890 392.187561,205.603317 392.187561,227.255737   C337.522583,227.255737 282.835480,227.255737 227.710114,227.348419   C227.271881,227.441116 227.083984,227.230286 227.072845,226.645111   C227.090363,191.293930 227.119019,156.527924 227.147675,121.761909  z"></path><path fill="#D5FF4A" stroke="none" d=" M376.924622,379.918762   C367.068237,388.858948 355.629089,392.640015 342.860870,392.692993   C325.714203,392.764099 308.564667,392.555084 291.421600,392.813019   C286.762634,392.883087 285.137451,391.811310 285.173309,386.815308   C285.401428,355.020142 285.422089,323.221436 285.158417,291.426849   C285.114594,286.143494 286.809998,285.149902 291.678314,285.182068   C323.307251,285.391113 354.938751,285.379028 386.567963,285.190674   C391.204834,285.163116 392.920593,286.153992 392.830383,291.174652   C392.519257,308.482483 392.776794,325.799683 392.690033,343.112701   C392.618286,357.426544 387.665253,369.748535 376.924622,379.918762  z"></path><path fill="#203A4D" stroke="none" d=" M226.751831,121.636925   C227.119019,156.527924 227.090363,191.293930 226.999313,226.524567   C192.141006,227.035858 157.345093,227.082520 122.133804,227.104095   C121.632301,207.275162 121.521317,187.471375 121.468163,167.667435   C121.427536,152.530014 121.460083,137.392395 121.460083,121.511940   C156.600983,121.511940 191.478500,121.511940 226.751831,121.636925  M216.436508,214.546204   C216.436508,187.277985 216.436508,160.009766 216.436508,132.534088   C188.180161,132.534088 160.344070,132.534088 132.470886,132.534088   C132.470886,160.617432 132.470886,188.338104 132.470886,216.143539   C133.570709,216.272736 134.385544,216.451584 135.200455,216.452103   C160.999115,216.468170 186.797791,216.479523 212.596344,216.429367   C213.823959,216.426971 215.050461,215.856628 216.436508,214.546204  z"></path><path fill="#FCFDFD" stroke="none" d=" M216.356995,215.048492   C215.050461,215.856628 213.823959,216.426971 212.596344,216.429367   C186.797791,216.479523 160.999115,216.468170 135.200455,216.452103   C134.385544,216.451584 133.570709,216.272736 132.470886,216.143539   C132.470886,188.338104 132.470886,160.617432 132.470886,132.534088   C160.344070,132.534088 188.180161,132.534088 216.436508,132.534088   C216.436508,160.009766 216.436508,187.277985 216.356995,215.048492  M197.312424,202.835403   C199.064011,202.835403 200.815582,202.835403 202.554565,202.835403   C202.554565,183.504700 202.554565,164.932388 202.554565,146.340591   C183.569992,146.340591 164.868301,146.340591 146.264526,146.340591   C146.264526,165.262192 146.264526,183.843246 146.264526,202.835388   C163.134781,202.835388 179.745071,202.835388 197.312424,202.835403  z"></path><path fill="#1D384B" stroke="none" d=" M196.833893,202.835388   C179.745071,202.835388 163.134781,202.835388 146.264526,202.835388   C146.264526,183.843246 146.264526,165.262192 146.264526,146.340591   C164.868301,146.340591 183.569992,146.340591 202.554565,146.340591   C202.554565,164.932388 202.554565,183.504700 202.554565,202.835403   C200.815582,202.835403 199.064011,202.835403 196.833893,202.835388  z"></path></svg>